<mxfile host="app.diagrams.net" modified="2022-12-29T02:17:10.683Z" agent="5.0 (Windows NT 10.0; Win64; x64) AppleWebKit/537.36 (KHTML, like Gecko) Chrome/108.0.0.0 Safari/537.36" version="20.7.4" etag="wxcPEDO9wfcgW0f5fJuo" type="github">
  <diagram id="hg0L-kshSbBL88xhGk0q" name="第 1 页">
    <mxGraphModel dx="1434" dy="764" grid="1" gridSize="10" guides="1" tooltips="1" connect="1" arrows="1" fold="1" page="1" pageScale="1" pageWidth="827" pageHeight="1169" math="0" shadow="0">
      <root>
        <mxCell id="0" />
        <mxCell id="1" parent="0" />
        <mxCell id="2t77rjwKLJjWulew8TqN-3" style="edgeStyle=orthogonalEdgeStyle;rounded=0;orthogonalLoop=1;jettySize=auto;html=1;exitX=0.5;exitY=1;exitDx=0;exitDy=0;entryX=0.5;entryY=0;entryDx=0;entryDy=0;" edge="1" parent="1" source="2t77rjwKLJjWulew8TqN-1" target="2t77rjwKLJjWulew8TqN-2">
          <mxGeometry relative="1" as="geometry" />
        </mxCell>
        <mxCell id="2t77rjwKLJjWulew8TqN-1" value="Test" style="rounded=1;whiteSpace=wrap;html=1;strokeWidth=2;fillWeight=4;hachureGap=8;hachureAngle=45;fillColor=#99FFFF;sketch=1;fillStyle=hachure;" vertex="1" parent="1">
          <mxGeometry x="150" y="180" width="120" height="60" as="geometry" />
        </mxCell>
        <mxCell id="2t77rjwKLJjWulew8TqN-6" style="edgeStyle=orthogonalEdgeStyle;rounded=0;orthogonalLoop=1;jettySize=auto;html=1;exitX=0.5;exitY=1;exitDx=0;exitDy=0;fontFamily=Times New Roman;fontSize=20;fontColor=default;" edge="1" parent="1" source="2t77rjwKLJjWulew8TqN-2" target="2t77rjwKLJjWulew8TqN-7">
          <mxGeometry relative="1" as="geometry">
            <mxPoint x="210" y="450" as="targetPoint" />
          </mxGeometry>
        </mxCell>
        <mxCell id="2t77rjwKLJjWulew8TqN-2" value="" style="rhombus;whiteSpace=wrap;html=1;strokeWidth=2;fillWeight=-1;hachureGap=8;fillStyle=cross-hatch;fillColor=#dae8fc;sketch=1;labelBackgroundColor=#00CCCC;rounded=0;shadow=0;strokeColor=#6c8ebf;" vertex="1" parent="1">
          <mxGeometry x="150" y="310" width="120" height="60" as="geometry" />
        </mxCell>
        <mxCell id="2t77rjwKLJjWulew8TqN-4" value="&lt;p style=&quot;font-size: 20px;&quot;&gt;&lt;font style=&quot;font-size: 20px;&quot;&gt;线程A&lt;/font&gt;&lt;/p&gt;" style="shape=ext;double=1;rounded=1;whiteSpace=wrap;html=1;shadow=0;labelBackgroundColor=none;fillStyle=hachure;fillColor=none;strokeColor=default;fontColor=default;fontSize=20;fontFamily=Times New Roman;" vertex="1" parent="1">
          <mxGeometry x="370" y="150" width="120" height="80" as="geometry" />
        </mxCell>
        <mxCell id="2t77rjwKLJjWulew8TqN-8" style="edgeStyle=orthogonalEdgeStyle;rounded=0;orthogonalLoop=1;jettySize=auto;html=1;exitX=1;exitY=0.5;exitDx=0;exitDy=0;fontFamily=Times New Roman;fontSize=20;fontColor=default;entryX=0;entryY=0.5;entryDx=0;entryDy=0;" edge="1" parent="1" source="2t77rjwKLJjWulew8TqN-7" target="2t77rjwKLJjWulew8TqN-9">
          <mxGeometry relative="1" as="geometry">
            <mxPoint x="390" y="500" as="targetPoint" />
          </mxGeometry>
        </mxCell>
        <mxCell id="2t77rjwKLJjWulew8TqN-7" value="" style="ellipse;whiteSpace=wrap;html=1;strokeWidth=2;fillWeight=2;hachureGap=8;fillColor=#990000;fillStyle=dots;sketch=1;rounded=0;shadow=0;labelBackgroundColor=none;strokeColor=default;fontFamily=Times New Roman;fontSize=20;fontColor=default;" vertex="1" parent="1">
          <mxGeometry x="150" y="470" width="120" height="60" as="geometry" />
        </mxCell>
        <mxCell id="2t77rjwKLJjWulew8TqN-9" value="" style="ellipse;shape=doubleEllipse;whiteSpace=wrap;html=1;aspect=fixed;rounded=0;shadow=0;labelBackgroundColor=none;fillStyle=hachure;strokeColor=default;fontFamily=Times New Roman;fontSize=20;fontColor=default;fillColor=none;" vertex="1" parent="1">
          <mxGeometry x="450" y="460" width="80" height="80" as="geometry" />
        </mxCell>
        <mxCell id="2t77rjwKLJjWulew8TqN-10" value="Table" style="shape=table;startSize=30;container=1;collapsible=0;childLayout=tableLayout;fontStyle=1;align=center;rounded=0;shadow=0;labelBackgroundColor=none;fillStyle=hachure;strokeColor=default;fontFamily=Times New Roman;fontSize=20;fontColor=default;fillColor=none;" vertex="1" parent="1">
          <mxGeometry x="540" y="200" width="180" height="150" as="geometry" />
        </mxCell>
        <mxCell id="2t77rjwKLJjWulew8TqN-11" value="" style="shape=tableRow;horizontal=0;startSize=0;swimlaneHead=0;swimlaneBody=0;top=0;left=0;bottom=0;right=0;collapsible=0;dropTarget=0;fillColor=none;points=[[0,0.5],[1,0.5]];portConstraint=eastwest;rounded=0;shadow=0;labelBackgroundColor=none;fillStyle=hachure;strokeColor=default;fontFamily=Times New Roman;fontSize=20;fontColor=default;" vertex="1" parent="2t77rjwKLJjWulew8TqN-10">
          <mxGeometry y="30" width="180" height="40" as="geometry" />
        </mxCell>
        <mxCell id="2t77rjwKLJjWulew8TqN-12" value="" style="shape=partialRectangle;html=1;whiteSpace=wrap;connectable=0;fillColor=none;top=0;left=0;bottom=0;right=0;overflow=hidden;rounded=0;shadow=0;labelBackgroundColor=none;fillStyle=hachure;strokeColor=default;fontFamily=Times New Roman;fontSize=20;fontColor=default;" vertex="1" parent="2t77rjwKLJjWulew8TqN-11">
          <mxGeometry width="60" height="40" as="geometry">
            <mxRectangle width="60" height="40" as="alternateBounds" />
          </mxGeometry>
        </mxCell>
        <mxCell id="2t77rjwKLJjWulew8TqN-13" value="" style="shape=partialRectangle;html=1;whiteSpace=wrap;connectable=0;fillColor=none;top=0;left=0;bottom=0;right=0;overflow=hidden;rounded=0;shadow=0;labelBackgroundColor=none;fillStyle=hachure;strokeColor=default;fontFamily=Times New Roman;fontSize=20;fontColor=default;" vertex="1" parent="2t77rjwKLJjWulew8TqN-11">
          <mxGeometry x="60" width="60" height="40" as="geometry">
            <mxRectangle width="60" height="40" as="alternateBounds" />
          </mxGeometry>
        </mxCell>
        <mxCell id="2t77rjwKLJjWulew8TqN-14" value="" style="shape=partialRectangle;html=1;whiteSpace=wrap;connectable=0;fillColor=none;top=0;left=0;bottom=0;right=0;overflow=hidden;rounded=0;shadow=0;labelBackgroundColor=none;fillStyle=hachure;strokeColor=default;fontFamily=Times New Roman;fontSize=20;fontColor=default;" vertex="1" parent="2t77rjwKLJjWulew8TqN-11">
          <mxGeometry x="120" width="60" height="40" as="geometry">
            <mxRectangle width="60" height="40" as="alternateBounds" />
          </mxGeometry>
        </mxCell>
        <mxCell id="2t77rjwKLJjWulew8TqN-15" value="" style="shape=tableRow;horizontal=0;startSize=0;swimlaneHead=0;swimlaneBody=0;top=0;left=0;bottom=0;right=0;collapsible=0;dropTarget=0;fillColor=none;points=[[0,0.5],[1,0.5]];portConstraint=eastwest;rounded=0;shadow=0;labelBackgroundColor=none;fillStyle=hachure;strokeColor=default;fontFamily=Times New Roman;fontSize=20;fontColor=default;" vertex="1" parent="2t77rjwKLJjWulew8TqN-10">
          <mxGeometry y="70" width="180" height="40" as="geometry" />
        </mxCell>
        <mxCell id="2t77rjwKLJjWulew8TqN-16" value="" style="shape=partialRectangle;html=1;whiteSpace=wrap;connectable=0;fillColor=none;top=0;left=0;bottom=0;right=0;overflow=hidden;rounded=0;shadow=0;labelBackgroundColor=none;fillStyle=hachure;strokeColor=default;fontFamily=Times New Roman;fontSize=20;fontColor=default;" vertex="1" parent="2t77rjwKLJjWulew8TqN-15">
          <mxGeometry width="60" height="40" as="geometry">
            <mxRectangle width="60" height="40" as="alternateBounds" />
          </mxGeometry>
        </mxCell>
        <mxCell id="2t77rjwKLJjWulew8TqN-17" value="" style="shape=partialRectangle;html=1;whiteSpace=wrap;connectable=0;fillColor=none;top=0;left=0;bottom=0;right=0;overflow=hidden;rounded=0;shadow=0;labelBackgroundColor=none;fillStyle=hachure;strokeColor=default;fontFamily=Times New Roman;fontSize=20;fontColor=default;" vertex="1" parent="2t77rjwKLJjWulew8TqN-15">
          <mxGeometry x="60" width="60" height="40" as="geometry">
            <mxRectangle width="60" height="40" as="alternateBounds" />
          </mxGeometry>
        </mxCell>
        <mxCell id="2t77rjwKLJjWulew8TqN-18" value="" style="shape=partialRectangle;html=1;whiteSpace=wrap;connectable=0;fillColor=none;top=0;left=0;bottom=0;right=0;overflow=hidden;rounded=0;shadow=0;labelBackgroundColor=none;fillStyle=hachure;strokeColor=default;fontFamily=Times New Roman;fontSize=20;fontColor=default;" vertex="1" parent="2t77rjwKLJjWulew8TqN-15">
          <mxGeometry x="120" width="60" height="40" as="geometry">
            <mxRectangle width="60" height="40" as="alternateBounds" />
          </mxGeometry>
        </mxCell>
        <mxCell id="2t77rjwKLJjWulew8TqN-19" value="" style="shape=tableRow;horizontal=0;startSize=0;swimlaneHead=0;swimlaneBody=0;top=0;left=0;bottom=0;right=0;collapsible=0;dropTarget=0;fillColor=none;points=[[0,0.5],[1,0.5]];portConstraint=eastwest;rounded=0;shadow=0;labelBackgroundColor=none;fillStyle=hachure;strokeColor=default;fontFamily=Times New Roman;fontSize=20;fontColor=default;" vertex="1" parent="2t77rjwKLJjWulew8TqN-10">
          <mxGeometry y="110" width="180" height="40" as="geometry" />
        </mxCell>
        <mxCell id="2t77rjwKLJjWulew8TqN-20" value="" style="shape=partialRectangle;html=1;whiteSpace=wrap;connectable=0;fillColor=none;top=0;left=0;bottom=0;right=0;overflow=hidden;rounded=0;shadow=0;labelBackgroundColor=none;fillStyle=hachure;strokeColor=default;fontFamily=Times New Roman;fontSize=20;fontColor=default;" vertex="1" parent="2t77rjwKLJjWulew8TqN-19">
          <mxGeometry width="60" height="40" as="geometry">
            <mxRectangle width="60" height="40" as="alternateBounds" />
          </mxGeometry>
        </mxCell>
        <mxCell id="2t77rjwKLJjWulew8TqN-21" value="" style="shape=partialRectangle;html=1;whiteSpace=wrap;connectable=0;fillColor=none;top=0;left=0;bottom=0;right=0;overflow=hidden;rounded=0;shadow=0;labelBackgroundColor=none;fillStyle=hachure;strokeColor=default;fontFamily=Times New Roman;fontSize=20;fontColor=default;" vertex="1" parent="2t77rjwKLJjWulew8TqN-19">
          <mxGeometry x="60" width="60" height="40" as="geometry">
            <mxRectangle width="60" height="40" as="alternateBounds" />
          </mxGeometry>
        </mxCell>
        <mxCell id="2t77rjwKLJjWulew8TqN-22" value="" style="shape=partialRectangle;html=1;whiteSpace=wrap;connectable=0;fillColor=none;top=0;left=0;bottom=0;right=0;overflow=hidden;rounded=0;shadow=0;labelBackgroundColor=none;fillStyle=hachure;strokeColor=default;fontFamily=Times New Roman;fontSize=20;fontColor=default;" vertex="1" parent="2t77rjwKLJjWulew8TqN-19">
          <mxGeometry x="120" width="60" height="40" as="geometry">
            <mxRectangle width="60" height="40" as="alternateBounds" />
          </mxGeometry>
        </mxCell>
        <mxCell id="2t77rjwKLJjWulew8TqN-23" value="Assets" style="childLayout=tableLayout;recursiveResize=0;strokeColor=#98bf21;fillColor=#A7C942;shadow=1;rounded=0;labelBackgroundColor=none;fillStyle=hachure;fontFamily=Times New Roman;fontSize=20;fontColor=default;" vertex="1" parent="1">
          <mxGeometry x="70" y="10" width="280" height="160" as="geometry" />
        </mxCell>
        <mxCell id="2t77rjwKLJjWulew8TqN-24" style="shape=tableRow;horizontal=0;startSize=0;swimlaneHead=0;swimlaneBody=0;top=0;left=0;bottom=0;right=0;dropTarget=0;collapsible=0;recursiveResize=0;expand=0;fontStyle=0;strokeColor=inherit;fillColor=#ffffff;rounded=0;shadow=0;labelBackgroundColor=none;fillStyle=hachure;fontFamily=Times New Roman;fontSize=20;fontColor=default;" vertex="1" parent="2t77rjwKLJjWulew8TqN-23">
          <mxGeometry width="280" height="33" as="geometry" />
        </mxCell>
        <mxCell id="2t77rjwKLJjWulew8TqN-25" value="Title 1" style="connectable=0;recursiveResize=0;strokeColor=inherit;fillColor=#A7C942;align=center;fontStyle=1;fontColor=#FFFFFF;html=1;rounded=0;shadow=0;labelBackgroundColor=none;fillStyle=hachure;fontFamily=Times New Roman;fontSize=20;" vertex="1" parent="2t77rjwKLJjWulew8TqN-24">
          <mxGeometry width="93" height="33" as="geometry">
            <mxRectangle width="93" height="33" as="alternateBounds" />
          </mxGeometry>
        </mxCell>
        <mxCell id="2t77rjwKLJjWulew8TqN-26" value="Title 2" style="connectable=0;recursiveResize=0;strokeColor=inherit;fillColor=#A7C942;align=center;fontStyle=1;fontColor=#FFFFFF;html=1;rounded=0;shadow=0;labelBackgroundColor=none;fillStyle=hachure;fontFamily=Times New Roman;fontSize=20;" vertex="1" parent="2t77rjwKLJjWulew8TqN-24">
          <mxGeometry x="93" width="94" height="33" as="geometry">
            <mxRectangle width="94" height="33" as="alternateBounds" />
          </mxGeometry>
        </mxCell>
        <mxCell id="2t77rjwKLJjWulew8TqN-27" value="Title 3" style="connectable=0;recursiveResize=0;strokeColor=inherit;fillColor=#A7C942;align=center;fontStyle=1;fontColor=#FFFFFF;html=1;rounded=0;shadow=0;labelBackgroundColor=none;fillStyle=hachure;fontFamily=Times New Roman;fontSize=20;" vertex="1" parent="2t77rjwKLJjWulew8TqN-24">
          <mxGeometry x="187" width="93" height="33" as="geometry">
            <mxRectangle width="93" height="33" as="alternateBounds" />
          </mxGeometry>
        </mxCell>
        <mxCell id="2t77rjwKLJjWulew8TqN-28" value="" style="shape=tableRow;horizontal=0;startSize=0;swimlaneHead=0;swimlaneBody=0;top=0;left=0;bottom=0;right=0;dropTarget=0;collapsible=0;recursiveResize=0;expand=0;fontStyle=0;strokeColor=inherit;fillColor=#ffffff;rounded=0;shadow=0;labelBackgroundColor=none;fillStyle=hachure;fontFamily=Times New Roman;fontSize=20;fontColor=default;" vertex="1" parent="2t77rjwKLJjWulew8TqN-23">
          <mxGeometry y="33" width="280" height="32" as="geometry" />
        </mxCell>
        <mxCell id="2t77rjwKLJjWulew8TqN-29" value="Value 1" style="connectable=0;recursiveResize=0;strokeColor=inherit;fillColor=inherit;align=center;whiteSpace=wrap;html=1;rounded=0;shadow=0;labelBackgroundColor=none;fillStyle=hachure;fontFamily=Times New Roman;fontSize=20;fontColor=default;" vertex="1" parent="2t77rjwKLJjWulew8TqN-28">
          <mxGeometry width="93" height="32" as="geometry">
            <mxRectangle width="93" height="32" as="alternateBounds" />
          </mxGeometry>
        </mxCell>
        <mxCell id="2t77rjwKLJjWulew8TqN-30" value="Value 2" style="connectable=0;recursiveResize=0;strokeColor=inherit;fillColor=inherit;align=center;whiteSpace=wrap;html=1;rounded=0;shadow=0;labelBackgroundColor=none;fillStyle=hachure;fontFamily=Times New Roman;fontSize=20;fontColor=default;" vertex="1" parent="2t77rjwKLJjWulew8TqN-28">
          <mxGeometry x="93" width="94" height="32" as="geometry">
            <mxRectangle width="94" height="32" as="alternateBounds" />
          </mxGeometry>
        </mxCell>
        <mxCell id="2t77rjwKLJjWulew8TqN-31" value="Value 3" style="connectable=0;recursiveResize=0;strokeColor=inherit;fillColor=inherit;align=center;whiteSpace=wrap;html=1;rounded=0;shadow=0;labelBackgroundColor=none;fillStyle=hachure;fontFamily=Times New Roman;fontSize=20;fontColor=default;" vertex="1" parent="2t77rjwKLJjWulew8TqN-28">
          <mxGeometry x="187" width="93" height="32" as="geometry">
            <mxRectangle width="93" height="32" as="alternateBounds" />
          </mxGeometry>
        </mxCell>
        <mxCell id="2t77rjwKLJjWulew8TqN-32" value="" style="shape=tableRow;horizontal=0;startSize=0;swimlaneHead=0;swimlaneBody=0;top=0;left=0;bottom=0;right=0;dropTarget=0;collapsible=0;recursiveResize=0;expand=0;fontStyle=1;strokeColor=inherit;fillColor=#EAF2D3;rounded=0;shadow=0;labelBackgroundColor=none;fillStyle=hachure;fontFamily=Times New Roman;fontSize=20;fontColor=default;" vertex="1" parent="2t77rjwKLJjWulew8TqN-23">
          <mxGeometry y="65" width="280" height="31" as="geometry" />
        </mxCell>
        <mxCell id="2t77rjwKLJjWulew8TqN-33" value="Value 4" style="connectable=0;recursiveResize=0;strokeColor=inherit;fillColor=inherit;whiteSpace=wrap;html=1;rounded=0;shadow=0;labelBackgroundColor=none;fillStyle=hachure;fontFamily=Times New Roman;fontSize=20;fontColor=default;" vertex="1" parent="2t77rjwKLJjWulew8TqN-32">
          <mxGeometry width="93" height="31" as="geometry">
            <mxRectangle width="93" height="31" as="alternateBounds" />
          </mxGeometry>
        </mxCell>
        <mxCell id="2t77rjwKLJjWulew8TqN-34" value="Value 5" style="connectable=0;recursiveResize=0;strokeColor=inherit;fillColor=inherit;whiteSpace=wrap;html=1;rounded=0;shadow=0;labelBackgroundColor=none;fillStyle=hachure;fontFamily=Times New Roman;fontSize=20;fontColor=default;" vertex="1" parent="2t77rjwKLJjWulew8TqN-32">
          <mxGeometry x="93" width="94" height="31" as="geometry">
            <mxRectangle width="94" height="31" as="alternateBounds" />
          </mxGeometry>
        </mxCell>
        <mxCell id="2t77rjwKLJjWulew8TqN-35" value="Value 6" style="connectable=0;recursiveResize=0;strokeColor=inherit;fillColor=inherit;whiteSpace=wrap;html=1;rounded=0;shadow=0;labelBackgroundColor=none;fillStyle=hachure;fontFamily=Times New Roman;fontSize=20;fontColor=default;" vertex="1" parent="2t77rjwKLJjWulew8TqN-32">
          <mxGeometry x="187" width="93" height="31" as="geometry">
            <mxRectangle width="93" height="31" as="alternateBounds" />
          </mxGeometry>
        </mxCell>
        <mxCell id="2t77rjwKLJjWulew8TqN-36" value="" style="shape=tableRow;horizontal=0;startSize=0;swimlaneHead=0;swimlaneBody=0;top=0;left=0;bottom=0;right=0;dropTarget=0;collapsible=0;recursiveResize=0;expand=0;fontStyle=0;strokeColor=inherit;fillColor=#ffffff;rounded=0;shadow=0;labelBackgroundColor=none;fillStyle=hachure;fontFamily=Times New Roman;fontSize=20;fontColor=default;" vertex="1" parent="2t77rjwKLJjWulew8TqN-23">
          <mxGeometry y="96" width="280" height="33" as="geometry" />
        </mxCell>
        <mxCell id="2t77rjwKLJjWulew8TqN-37" value="Value 7" style="connectable=0;recursiveResize=0;strokeColor=inherit;fillColor=inherit;fontStyle=0;align=center;whiteSpace=wrap;html=1;rounded=0;shadow=0;labelBackgroundColor=none;fillStyle=hachure;fontFamily=Times New Roman;fontSize=20;fontColor=default;" vertex="1" parent="2t77rjwKLJjWulew8TqN-36">
          <mxGeometry width="93" height="33" as="geometry">
            <mxRectangle width="93" height="33" as="alternateBounds" />
          </mxGeometry>
        </mxCell>
        <mxCell id="2t77rjwKLJjWulew8TqN-38" value="Value 8" style="connectable=0;recursiveResize=0;strokeColor=inherit;fillColor=inherit;fontStyle=0;align=center;whiteSpace=wrap;html=1;rounded=0;shadow=0;labelBackgroundColor=none;fillStyle=hachure;fontFamily=Times New Roman;fontSize=20;fontColor=default;" vertex="1" parent="2t77rjwKLJjWulew8TqN-36">
          <mxGeometry x="93" width="94" height="33" as="geometry">
            <mxRectangle width="94" height="33" as="alternateBounds" />
          </mxGeometry>
        </mxCell>
        <mxCell id="2t77rjwKLJjWulew8TqN-39" value="Value 9" style="connectable=0;recursiveResize=0;strokeColor=inherit;fillColor=inherit;fontStyle=0;align=center;whiteSpace=wrap;html=1;rounded=0;shadow=0;labelBackgroundColor=none;fillStyle=hachure;fontFamily=Times New Roman;fontSize=20;fontColor=default;" vertex="1" parent="2t77rjwKLJjWulew8TqN-36">
          <mxGeometry x="187" width="93" height="33" as="geometry">
            <mxRectangle width="93" height="33" as="alternateBounds" />
          </mxGeometry>
        </mxCell>
        <mxCell id="2t77rjwKLJjWulew8TqN-40" value="" style="shape=tableRow;horizontal=0;startSize=0;swimlaneHead=0;swimlaneBody=0;top=0;left=0;bottom=0;right=0;dropTarget=0;collapsible=0;recursiveResize=0;expand=0;fontStyle=1;strokeColor=inherit;fillColor=#EAF2D3;rounded=0;shadow=0;labelBackgroundColor=none;fillStyle=hachure;fontFamily=Times New Roman;fontSize=20;fontColor=default;" vertex="1" parent="2t77rjwKLJjWulew8TqN-23">
          <mxGeometry y="129" width="280" height="31" as="geometry" />
        </mxCell>
        <mxCell id="2t77rjwKLJjWulew8TqN-41" value="Value 10" style="connectable=0;recursiveResize=0;strokeColor=inherit;fillColor=inherit;whiteSpace=wrap;html=1;rounded=0;shadow=0;labelBackgroundColor=none;fillStyle=hachure;fontFamily=Times New Roman;fontSize=20;fontColor=default;" vertex="1" parent="2t77rjwKLJjWulew8TqN-40">
          <mxGeometry width="93" height="31" as="geometry">
            <mxRectangle width="93" height="31" as="alternateBounds" />
          </mxGeometry>
        </mxCell>
        <mxCell id="2t77rjwKLJjWulew8TqN-42" value="Value 11" style="connectable=0;recursiveResize=0;strokeColor=inherit;fillColor=inherit;whiteSpace=wrap;html=1;rounded=0;shadow=0;labelBackgroundColor=none;fillStyle=hachure;fontFamily=Times New Roman;fontSize=20;fontColor=default;" vertex="1" parent="2t77rjwKLJjWulew8TqN-40">
          <mxGeometry x="93" width="94" height="31" as="geometry">
            <mxRectangle width="94" height="31" as="alternateBounds" />
          </mxGeometry>
        </mxCell>
        <mxCell id="2t77rjwKLJjWulew8TqN-43" value="Value 12" style="connectable=0;recursiveResize=0;strokeColor=inherit;fillColor=inherit;whiteSpace=wrap;html=1;rounded=0;shadow=0;labelBackgroundColor=none;fillStyle=hachure;fontFamily=Times New Roman;fontSize=20;fontColor=default;" vertex="1" parent="2t77rjwKLJjWulew8TqN-40">
          <mxGeometry x="187" width="93" height="31" as="geometry">
            <mxRectangle width="93" height="31" as="alternateBounds" />
          </mxGeometry>
        </mxCell>
        <mxCell id="2t77rjwKLJjWulew8TqN-44" value="&lt;h1&gt;Heading&lt;/h1&gt;&lt;p&gt;Lorem ipsum dolor sit amet, consectetur adipisicing elit, sed do eiusmod tempor incididunt ut labore et dolore magna aliqua.&lt;/p&gt;" style="text;html=1;strokeColor=none;fillColor=none;spacing=5;spacingTop=-20;whiteSpace=wrap;overflow=hidden;rounded=0;shadow=0;labelBackgroundColor=none;fillStyle=hachure;fontFamily=Times New Roman;fontSize=20;fontColor=default;" vertex="1" parent="1">
          <mxGeometry x="520" y="10" width="190" height="120" as="geometry" />
        </mxCell>
        <mxCell id="2t77rjwKLJjWulew8TqN-45" value="" style="shape=filledEdge;curved=0;rounded=0;fixDash=1;endArrow=none;strokeWidth=10;fillColor=#ffffff;edgeStyle=orthogonalEdgeStyle;html=1;fontFamily=Times New Roman;fontSize=20;fontColor=default;" edge="1" parent="1">
          <mxGeometry width="60" height="40" relative="1" as="geometry">
            <mxPoint x="620" y="510" as="sourcePoint" />
            <mxPoint x="680" y="470" as="targetPoint" />
          </mxGeometry>
        </mxCell>
        <mxCell id="2t77rjwKLJjWulew8TqN-46" value="Text" style="edgeLabel;html=1;align=center;verticalAlign=middle;resizable=0;points=[];fontSize=20;fontFamily=Times New Roman;fontColor=default;" vertex="1" connectable="0" parent="2t77rjwKLJjWulew8TqN-45">
          <mxGeometry x="0.4" y="2" relative="1" as="geometry">
            <mxPoint as="offset" />
          </mxGeometry>
        </mxCell>
        <mxCell id="2t77rjwKLJjWulew8TqN-47" value="Vertical Tree Layout" style="swimlane;startSize=20;horizontal=1;childLayout=treeLayout;horizontalTree=0;resizable=0;containerType=tree;rounded=0;shadow=0;labelBackgroundColor=none;fillStyle=hachure;strokeColor=default;fontFamily=Times New Roman;fontSize=20;fontColor=default;fillColor=none;" vertex="1" parent="1">
          <mxGeometry x="120" y="610" width="280" height="190" as="geometry" />
        </mxCell>
        <mxCell id="2t77rjwKLJjWulew8TqN-48" value="Root" style="whiteSpace=wrap;html=1;rounded=0;shadow=0;labelBackgroundColor=none;fillStyle=hachure;strokeColor=default;fontFamily=Times New Roman;fontSize=20;fontColor=default;fillColor=none;" vertex="1" parent="2t77rjwKLJjWulew8TqN-47">
          <mxGeometry x="90" y="40" width="100" height="40" as="geometry" />
        </mxCell>
        <mxCell id="2t77rjwKLJjWulew8TqN-49" value="Child 1" style="whiteSpace=wrap;html=1;rounded=0;shadow=0;labelBackgroundColor=none;fillStyle=hachure;strokeColor=default;fontFamily=Times New Roman;fontSize=20;fontColor=default;fillColor=none;" vertex="1" parent="2t77rjwKLJjWulew8TqN-47">
          <mxGeometry x="20" y="130" width="100" height="40" as="geometry" />
        </mxCell>
        <mxCell id="2t77rjwKLJjWulew8TqN-50" value="" style="edgeStyle=elbowEdgeStyle;elbow=vertical;html=1;rounded=0;fontFamily=Times New Roman;fontSize=20;fontColor=default;" edge="1" parent="2t77rjwKLJjWulew8TqN-47" source="2t77rjwKLJjWulew8TqN-48" target="2t77rjwKLJjWulew8TqN-49">
          <mxGeometry relative="1" as="geometry" />
        </mxCell>
        <mxCell id="2t77rjwKLJjWulew8TqN-51" value="Child 2" style="whiteSpace=wrap;html=1;rounded=0;shadow=0;labelBackgroundColor=none;fillStyle=hachure;strokeColor=default;fontFamily=Times New Roman;fontSize=20;fontColor=default;fillColor=none;" vertex="1" parent="2t77rjwKLJjWulew8TqN-47">
          <mxGeometry x="160" y="130" width="100" height="40" as="geometry" />
        </mxCell>
        <mxCell id="2t77rjwKLJjWulew8TqN-52" value="" style="edgeStyle=elbowEdgeStyle;elbow=vertical;html=1;rounded=0;fontFamily=Times New Roman;fontSize=20;fontColor=default;" edge="1" parent="2t77rjwKLJjWulew8TqN-47" source="2t77rjwKLJjWulew8TqN-48" target="2t77rjwKLJjWulew8TqN-51">
          <mxGeometry relative="1" as="geometry" />
        </mxCell>
        <mxCell id="2t77rjwKLJjWulew8TqN-53" value="Process Bar" style="swimlane;childLayout=stackLayout;horizontal=1;fillColor=none;horizontalStack=1;resizeParent=1;resizeParentMax=0;resizeLast=0;collapsible=0;strokeColor=none;stackBorder=10;stackSpacing=-12;resizable=1;align=center;points=[];fontColor=#000000;whiteSpace=wrap;html=1;rounded=0;shadow=0;labelBackgroundColor=none;fillStyle=hachure;fontFamily=Times New Roman;fontSize=20;" vertex="1" parent="1">
          <mxGeometry x="482" y="655" width="296" height="100" as="geometry" />
        </mxCell>
        <mxCell id="2t77rjwKLJjWulew8TqN-54" value="Step 1" style="shape=step;perimeter=stepPerimeter;fixedSize=1;points=[];whiteSpace=wrap;html=1;rounded=0;shadow=0;labelBackgroundColor=none;fillStyle=hachure;strokeColor=default;fontFamily=Times New Roman;fontSize=20;fontColor=default;fillColor=none;" vertex="1" parent="2t77rjwKLJjWulew8TqN-53">
          <mxGeometry x="10" y="33" width="100" height="57" as="geometry" />
        </mxCell>
        <mxCell id="2t77rjwKLJjWulew8TqN-55" value="Step 2" style="shape=step;perimeter=stepPerimeter;fixedSize=1;points=[];whiteSpace=wrap;html=1;rounded=0;shadow=0;labelBackgroundColor=none;fillStyle=hachure;strokeColor=default;fontFamily=Times New Roman;fontSize=20;fontColor=default;fillColor=none;" vertex="1" parent="2t77rjwKLJjWulew8TqN-53">
          <mxGeometry x="98" y="33" width="100" height="57" as="geometry" />
        </mxCell>
        <mxCell id="2t77rjwKLJjWulew8TqN-56" value="Step 3" style="shape=step;perimeter=stepPerimeter;fixedSize=1;points=[];whiteSpace=wrap;html=1;rounded=0;shadow=0;labelBackgroundColor=none;fillStyle=hachure;strokeColor=default;fontFamily=Times New Roman;fontSize=20;fontColor=default;fillColor=none;" vertex="1" parent="2t77rjwKLJjWulew8TqN-53">
          <mxGeometry x="186" y="33" width="100" height="57" as="geometry" />
        </mxCell>
      </root>
    </mxGraphModel>
  </diagram>
</mxfile>
